<svg height="512pt" viewBox="-46 0 512 512" width="512pt" xmlns="http://www.w3.org/2000/svg"><path d="m410 302c0 110.460938-89.539062 200-200 200s-200-89.539062-200-200c0-110.421875 89.503906-200 200-200 110.089844 0 200 89.175781 200 200zm0 0" fill="#4e8dc2"/><path d="m210 142c-89.558594 0-160 73.078125-160 160 0 88.21875 71.78125 160 160 160s160-71.78125 160-160-71.78125-160-160-160zm0 0" fill="#c4efff"/><path d="m190 50h40v52.988281h-40zm0 0" fill="#ececf1"/><path d="m378.28125 123.71875c7.808594 7.8125 7.808594 20.472656 0 28.28125l-18.011719 18.011719c-8.828125-10.042969-18.628906-19.183594-29.28125-27.28125l19.011719-19.011719c7.808594-7.808594 20.46875-7.808594 28.28125 0zm0 0" fill="#ececf1"/><path d="m250 10c11.050781 0 20 8.949219 20 20 0 11.039062-8.960938 20-20 20-24.960938 0-56.554688 0-80 0-11.050781 0-20-8.949219-20-20 0-11.039062 8.960938-20 20-20zm0 0" fill="#4e8dc2"/><path d="m210 282c11.050781 0 20 8.949219 20 20s-8.949219 20-20 20-20-8.949219-20-20 8.949219-20 20-20zm0 0" fill="#4e8dc2"/><path d="m100 192c5.519531 0 10-4.480469 10-10 0-5.460938-4.4375-10-10-10-5.519531 0-10 4.480469-10 10 0 5.527344 4.496094 10 10 10zm0 0"/><path d="m210 132c-29.511719 0-57.363281 7.675781-80.65625 20.382812-4.851562 2.644532-6.636719 8.71875-3.992188 13.566407 2.644532 4.847656 8.722657 6.636719 13.566407 3.988281 20.703125-11.292969 45.191406-17.9375 71.082031-17.9375 82.710938 0 150 67.289062 150 150s-67.289062 150-150 150-150-67.289062-150-150c0-14.28125 3.503906-35.238281 8.148438-48.75 4.109374-11.949219 9.507812-22.925781 16.503906-33.550781 3.035156-4.613281 1.757812-10.8125-2.855469-13.851563-4.613281-3.035156-10.8125-1.757812-13.851563 2.851563-7.929687 12.046875-14.050781 24.492187-18.710937 38.050781-5.4375 15.8125-9.234375 38.53125-9.234375 55.25 0 93.738281 76.261719 170 170 170s170-76.261719 170-170-76.261719-170-170-170zm0 0"/><path d="m385.351562 159.070312c11.695313-11.695312 11.695313-30.726562 0-42.421874-11.695312-11.695313-30.726562-11.695313-42.421874 0l-12.96875 12.96875c-26.847657-18.710938-57.636719-30.851563-89.960938-35.480469v-34.136719h10c16.574219 0 30-13.425781 30-30 0-16.542969-13.457031-30-30-30h-80c-16.574219 0-30 13.425781-30 30 0 16.542969 13.457031 30 30 30h10v34.136719c-102.796875 14.714843-180 103.078125-180 207.863281 0 115.792969 94.207031 210 210 210s210-94.207031 210-210c0-47.933594-16.335938-94.230469-46.175781-131.398438zm-14.140624-28.28125c3.894531 3.898438 3.894531 10.242188 0 14.140626l-10.664063 10.660156c-4.65625-4.78125-9.539063-9.339844-14.617187-13.65625l11.140624-11.144532c3.902344-3.898437 10.242188-3.894531 14.140626 0zm-211.210938-100.789062c0-5.519531 4.480469-10 10-10h80c5.515625 0 10 4.484375 10 10 0 5.519531-4.480469 10-10 10h-80c-5.515625 0-10-4.484375-10-10zm60 30v32.242188c-6.644531-.308594-13.359375-.308594-20 0v-32.242188zm-10 432c-104.765625 0-190-85.234375-190-190 0-105.652344 84.816406-190 190-190 105.367188 0 190 85.523438 190 190 0 104.765625-85.234375 190-190 190zm0 0"/><path d="m210 192c-5.523438 0-10 4.476562-10 10v71.71875c-11.640625 4.128906-20 15.246094-20 28.28125s8.359375 24.152344 20 28.28125v11.71875c0 5.523438 4.476562 10 10 10s10-4.476562 10-10v-11.71875c11.640625-4.128906 20-15.246094 20-28.28125s-8.359375-24.152344-20-28.28125v-71.71875c0-5.523438-4.476562-10-10-10zm0 120c-5.515625 0-10-4.484375-10-10s4.484375-10 10-10 10 4.484375 10 10-4.484375 10-10 10zm0 0"/></svg>